<?xml version="1.0" encoding="UTF-8"?>
<svg version="1.1" viewBox="0 0 1260 1200" width="315" height="300" xmlns="http://www.w3.org/2000/svg">
<path transform="translate(608,65)" d="m0 0h44l19 3 29 7 22 8 18 8 22 13 15 11 11 9 12 11 10 10 7 8 14 19 9 15 8 15 10 24 7 23 5 26 2 17v32l-2 17-5 26-8 26-6 13-9 16-13 19-12 19-8 11-13 18-10 15-19 28-11 17-11 15-17 25-12 18-9 14-10 14-13 18-24 36-9 14-6 5-7 3h-9l-5-3-9-9-12-17-10-14-24-34-13-18-14-20-12-17-13-18-10-14-14-20-13-19-12-16-11-16-12-17-28-40-9-15-8-20-5-17-5-25-3-23v-23l2-16 5-28 8-28 11-24 10-20 12-17 12-14 7-8 17-17 14-11 12-9 27-15 24-10 19-6 26-6zm-165 108 1 4 6 6h2v2l8 7 112 112-2 4-126 126v2l115-1 70-70 1-2 4 1 8 9h2l2 4 4 4h2v2l7 6 5 6 7 6 12 12 7 8h2l1 3 8 7 4 4h115l-6-7-7-6-1-2h-2l-2-4-41-41h-2l-2-4h-2l-2-4h-2l-2-4h-2l-2-4-6-5-5-6-7-6-5-6-7-6-6-7-6-5-12-12v-2l8-7 107-107v-2l4-2 10-10v-3h-115l-72 72v2l-6-5-6-7h-2l-2-4-4-4h-2l-2-4-5-5h-2l-1-3-6-5-2-3h-2l-2-4-6-5-5-6-8-7-12-12z" fill="#008A49"/>
<path transform="translate(589,800)" d="m0 0h64l3 1 19 1 29 5 20 5 20 8 15 9 13 11 10 13 6 12 5 16 2 14-4 1h-120l-3-5-5-9-8-6-12-5-9-1-2-1h-31l-13 4-8 5-3 6v8l4 6 6 4 16 4 15 3 26 4 69 11 27 6 16 6 13 7 12 9 8 8 9 14 6 16 3 17v23l-2 14-5 17-6 12-10 14-12 11-14 9-20 9-25 7-20 4-22 3h-14l-2 1-11 1h-45l-10-1-6-1h-10l-15-3-14-3-21-7-17-8-12-8-10-9-8-8-9-14-5-12-4-14-1-7v-13h129l4 10 6 7 11 6 12 3 5 1h26l13-3 8-4 6-7 1-3v-11l-4-7-8-6-7-3-12-3-13-2-6-1-22-3-16-2-12-2-16-2-12-2-11-2-20-6-17-8-14-10-10-10-7-11-7-16-3-16v-24l2-13 4-13 6-12 7-9 8-9 13-9 16-8 20-6 19-4 12-2 19-1z" fill="#008A49"/>
<path transform="translate(86,808)" d="m0 0h107l1 1 1 179 2 17 5 19 6 11 7 7 12 6 13 3h21l15-4 10-6 5-5 6-9 4-13 3-14 1-10 1-181 1-1h106l1 1v186l-3 26-5 21-5 14-8 16-8 12-9 10-13 11-18 10-18 7-20 5-15 3h-13l-2 1-10 1h-36l-10-2h-12l-25-5-19-6-19-9-12-8-14-13-8-10-8-13-6-13-5-16-5-25-2-19z" fill="#008A49"/>
<path transform="translate(829,808)" d="m0 0h129l13 23 15 27 9 16h2l9-16 13-21 12-20 7-9h127l-2 4-7 9-12 17-13 18-10 14-13 18-12 17-13 18-8 11-13 18-3 4 1 4 7 9 10 14 11 15 13 18 14 19 13 18 14 19 13 18 14 19 8 11 1 4h-133l-6-9-14-24-15-26-13-22-3-2-6 10-6 11-16 27-17 28-4 6-6 1h-126l-2-2 10-13 9-12 14-19 10-14 13-17 12-16 14-19 13-18 10-13 11-15 6-8-2-4-14-20-12-17-13-18-14-20-13-18-24-34-10-14-2-2z" fill="#008A49"/>
</svg>
